<?xml version="1.0" encoding="UTF-8"?>
<!-- Generator: visioncortex VTracer 0.6.2 -->
<svg version="1.1" xmlns="http://www.w3.org/2000/svg" width="1280" height="366">
<path d="M0 0 C0.495 0.99 0.495 0.99 1 2 C1.99 1.67 2.98 1.34 4 1 C5.40162482 0.92477952 6.80666128 0.90553465 8.21020508 0.92211914 C9.50640022 0.93135658 9.50640022 0.93135658 10.82878113 0.94078064 C12.25351494 0.95655907 12.25351494 0.95655907 13.70703125 0.97265625 C23.29167359 1.02641768 32.86626514 0.9305774 42.44921875 0.74609375 C43.78703659 0.72115736 45.12485602 0.6963062 46.462677 0.67153931 C51.94175823 0.56926161 57.42076347 0.46364668 62.8996582 0.35180664 C65.65097936 0.29583652 68.40232761 0.24269187 71.15376282 0.19264221 C73.71470953 0.14590484 76.27558342 0.09493274 78.83634949 0.03916931 C80.55643974 0.00902489 80.55643974 0.00902489 82.3112793 -0.02172852 C83.31668259 -0.04171402 84.32208588 -0.06169952 85.35795593 -0.08229065 C88 0 88 0 89.90756226 0.49822998 C93.00837793 1.24181069 95.9832661 1.085296 99.16772461 1.05004883 C99.88204147 1.04376968 100.59635834 1.03749054 101.33232117 1.03102112 C102.87976428 1.01719688 104.4271897 1.00126725 105.97459221 0.98346901 C108.42524348 0.95678188 110.87580386 0.93894312 113.32655334 0.92399597 C120.29330843 0.88128993 127.25988296 0.83354029 134.22631836 0.75317383 C138.49084848 0.70462085 142.75512884 0.67564812 147.01989937 0.65942955 C148.64303206 0.64953897 150.26613751 0.63233925 151.88911247 0.60764503 C154.1606776 0.57384724 156.43109519 0.56501054 158.70288086 0.56176758 C160.64003212 0.5439196 160.64003212 0.5439196 162.61631775 0.52571106 C166.53835446 1.07546086 168.18607433 2.28426164 171 5 C170.125 9.875 170.125 9.875 169 11 C163.29600101 11.91034805 157.76662652 12.127462 152 12.0625 C151.22527344 12.05798828 150.45054687 12.05347656 149.65234375 12.04882812 C147.76819476 12.03719758 145.88408635 12.01926906 144 12 C143.34 13.65 142.68 15.3 142 17 C142.33 16.67 142.66 16.34 143 16 C146.53339829 12.46660171 151.77729012 13.54538433 156.5625 13.5 C157.62275391 13.45875 158.68300781 13.4175 159.77539062 13.375 C167.45574799 13.29919141 172.23009623 14.87957593 178 20 C181.27034658 23.40469949 183.26908846 26.248717 183.5625 31.0625 C182.76004251 36.67970242 180.1314386 40.25410885 176 44 C169.68808215 46.97569227 164.36290764 47.43098518 157.44897461 47.38768005 C155.89135485 47.39575836 155.89135485 47.39575836 154.30226803 47.40399987 C150.83550476 47.41826537 147.36912408 47.41117903 143.90234375 47.40405273 C141.41170953 47.40975696 138.92107793 47.41672143 136.43045044 47.42485046 C130.37551583 47.44092787 124.32073059 47.44288406 118.26578927 47.43763756 C113.34326899 47.43359026 108.42077933 47.43504605 103.4982605 47.44038582 C102.79671245 47.44113424 102.09516439 47.44188266 101.37235731 47.44265376 C99.94701742 47.44418529 98.52167755 47.44572364 97.09633768 47.44726873 C83.74208203 47.46098395 70.38788503 47.45556265 57.03363073 47.44408352 C44.82421709 47.43414896 32.61495494 47.44709735 20.40556467 47.47101771 C7.85759931 47.49541555 -4.69029551 47.5050151 -17.23828411 47.49836498 C-24.27853999 47.49487469 -31.31867933 47.49709241 -38.35891724 47.51461601 C-44.97786238 47.53088726 -51.5965652 47.52614577 -58.21551895 47.50731087 C-60.64390126 47.5036211 -63.07230496 47.50674466 -65.50066757 47.51719666 C-68.81710454 47.53038081 -72.13257901 47.51888073 -75.44897461 47.50120544 C-76.40851579 47.51081045 -77.36805696 47.52041546 -78.35667515 47.53031152 C-85.93285565 47.44730558 -91.13613442 45.54565829 -96.8125 40.5 C-97.534375 39.675 -98.25625 38.85 -99 38 C-99.61875 37.401875 -100.2375 36.80375 -100.875 36.1875 C-102.64998055 32.73614893 -102.00094002 29.5936527 -101 26 C-98.26433575 20.41924493 -94.47259349 17.61095116 -89 15 C-80.3142613 12.20729497 -71.05991598 12.72754928 -62.05078125 12.76953125 C-60.3512676 12.77013628 -58.65175349 12.76993615 -56.95223999 12.76899719 C-52.36133824 12.76952766 -47.77057715 12.78346372 -43.1797142 12.80155182 C-40.30679321 12.81252179 -37.43387494 12.82103562 -34.5609436 12.82879639 C-25.55767517 12.85369074 -16.55449096 12.8865629 -7.5512991 12.93136978 C2.81631625 12.98294534 13.18355807 13.00838458 23.5512991 13.01105022 C31.5856936 13.01465884 39.61980952 13.04121544 47.65408421 13.08509541 C52.4442624 13.11077293 57.23401066 13.12695704 62.02426147 13.11929321 C66.52925379 13.11274142 71.03322801 13.13481276 75.53800583 13.17836571 C77.18503527 13.18947369 78.83216992 13.19053835 80.47920609 13.18047523 C91.80500526 13.11927188 99.27772234 14.7753117 107.875 22.625 C108.57625 23.40875 109.2775 24.1925 110 25 C110.99 25.99 110.99 25.99 112 27 C115.5 30.5 115.5 30.5 119 34 C117.13912398 29.90607276 115.28091459 27.06218695 112 24 C111.67 23.34 111.34 22.68 111 22 C110.01 21.67 109.02 21.34 108 21 C108 20.34 108 19.68 108 19 C107.12484678 18.58514406 107.12484678 18.58514406 106.2320137 18.1619072 C104 17 104 17 102.22437668 15.73033524 C94.83251961 10.68873772 86.95785467 11.33822805 78.39550781 11.44824219 C76.72071584 11.45129381 75.04591857 11.45211847 73.37112427 11.45089722 C68.84171297 11.45372355 64.31298745 11.48717929 59.78376102 11.52596188 C55.02798672 11.56109818 50.27217945 11.56682953 45.51629639 11.57550049 C36.50440002 11.59617792 27.49281236 11.64147813 18.48106647 11.69644666 C5.28501506 11.77594661 -7.91116289 11.82084581 -21.10737991 11.86287308 C-22.56488887 11.86753936 -22.56488887 11.86753936 -24.05184245 11.87229991 C-25.9909662 11.87850761 -27.93009015 11.8846538 -29.8692143 11.89073682 C-35.51646798 11.9093108 -41.16361417 11.93576069 -46.81079817 11.96933699 C-50.33825089 11.98968683 -53.8657159 12.00599804 -57.39319229 12.02164078 C-59.01643297 12.02983225 -60.63966576 12.03984396 -62.26288223 12.05191422 C-69.63941219 12.10621958 -77.01231556 12.09634884 -84.38262939 11.74786377 C-85.90851622 11.67871702 -85.90851622 11.67871702 -87.46522903 11.60817337 C-90 11 -90 11 -91.89014816 9.12122726 C-93 7 -93 7 -92.375 4.3125 C-91 2 -91 2 -88 1 C-84.97981236 0.93793876 -81.98036408 0.93397851 -78.9609375 0.96875 C-69.1093922 1.02490134 -59.26408418 0.93495161 -49.4140625 0.78125 C-48.69298058 0.77017212 -47.97189865 0.75909424 -47.22896576 0.74768066 C-42.78404092 0.67921045 -38.33915906 0.60825016 -33.89428711 0.53643799 C-30.05845086 0.47484589 -26.2225835 0.41525449 -22.38671875 0.35546875 C-14.92444829 0.23888 -7.46221385 0.12016354 0 0 Z M-77 10 C-77 10.33 -77 10.66 -77 11 C-30.47 11 16.06 11 64 11 C64 10.67 64 10.34 64 10 C17.47 10 -29.06 10 -77 10 Z M66 10 C66 10.33 66 10.66 66 11 C69.3 11 72.6 11 76 11 C76 10.67 76 10.34 76 10 C72.7 10 69.4 10 66 10 Z M77 10 C77 10.33 77 10.66 77 11 C81.62 11 86.24 11 91 11 C91 10.67 91 10.34 91 10 C86.38 10 81.76 10 77 10 Z M149 10 C149 10.33 149 10.66 149 11 C152.96 11 156.92 11 161 11 C161 10.67 161 10.34 161 10 C157.04 10 153.08 10 149 10 Z M140 18 C141 20 141 20 141 20 Z M138 19 C137.00810324 20.22353733 136.05665085 21.4799884 135.125 22.75 C134.61195313 23.44609375 134.09890625 24.1421875 133.5703125 24.859375 C133.05210937 25.56578125 132.53390625 26.2721875 132 27 C131.00147309 28.33443688 130.00191881 29.66810793 129 31 C132.1128338 31.34695311 132.1128338 31.34695311 134.04296875 29.03125 C134.75066406 28.1959375 135.45835937 27.360625 136.1875 26.5 C136.90292969 25.6646875 137.61835938 24.829375 138.35546875 23.96875 C138.89816406 23.3190625 139.44085938 22.669375 140 22 C139.67 21.01 139.34 20.02 139 19 C138.67 19 138.34 19 138 19 Z " fill="#CDDEA5" transform="translate(186,171)"/>
<path d="M0 0 C0.8765625 0.43183594 1.753125 0.86367187 2.65625 1.30859375 C9.50533442 4.85818947 16.13588343 8.96389215 22 14 C22 14.66 22 15.32 22 16 C22.99 16.33 23.98 16.66 25 17 C25 17.66 25 18.32 25 19 C25.66 19 26.32 19 27 19 C28.69674826 20.94300199 30.26408863 22.88088336 31.8125 24.9375 C32.48853271 25.82840332 32.48853271 25.82840332 33.17822266 26.73730469 C36.57405145 31.28228292 39.52421518 35.8859271 42 41 C42.34417969 41.67933594 42.68835937 42.35867187 43.04296875 43.05859375 C49.41371856 56.36150043 52.04307496 71.22049099 51.984375 85.91015625 C51.77157827 88.91206063 51.77157827 88.91206063 53 91 C52.82420139 93.21506244 52.63054663 95.42943475 52.375 97.63671875 C52.08655707 100.22369126 51.84169576 102.80136844 51.625 105.39453125 C50.07070214 123.19533197 45.66240405 138.2287605 35.31640625 153.0859375 C33.8589617 155.14821225 33.8589617 155.14821225 32.25 158.0625 C31.8375 158.701875 31.425 159.34125 31 160 C30.34 160 29.68 160 29 160 C28.86271484 160.88558594 28.86271484 160.88558594 28.72265625 161.7890625 C27.34979052 165.98928955 23.35126807 168.31315725 20 171 C19.33097656 171.54269531 18.66195313 172.08539063 17.97265625 172.64453125 C13.56250852 176.09405274 9.06131042 178.64254553 4 181 C3.09378906 181.48726562 2.18757813 181.97453125 1.25390625 182.4765625 C-2.42917708 184.20093525 -6.00021316 185.23018428 -9.9375 186.1875 C-10.95360352 186.45336914 -10.95360352 186.45336914 -11.99023438 186.72460938 C-16.4201172 187.82464739 -20.40982645 188.07620978 -25 188 C-25.33 188.33 -25.66 188.66 -26 189 C-42.49147854 190.56660403 -59.18980725 188.71109209 -74 181 C-74.93585938 180.57460938 -74.93585938 180.57460938 -75.890625 180.140625 C-86.33649391 175.29985648 -95.03518729 168.5948564 -102.625 160 C-103.19476562 159.360625 -103.76453125 158.72125 -104.3515625 158.0625 C-106.14855826 155.81412616 -107.55787462 153.48920046 -109 151 C-109.47179688 150.25621094 -109.94359375 149.51242188 -110.4296875 148.74609375 C-116.65424211 138.8036295 -120.67604018 128.48907638 -123 117 C-123.20625 115.99066406 -123.4125 114.98132813 -123.625 113.94140625 C-126.56173557 96.95320671 -125.70672607 79.76408777 -122 63 C-121.85691406 62.16984375 -121.71382812 61.3396875 -121.56640625 60.484375 C-117.86184123 39.86102335 -104.4408744 21.02249385 -88.09375 8.390625 C-86 7 -86 7 -83 6 C-82.67 5.34 -82.34 4.68 -82 4 C-78.78670694 2.39685379 -75.36193642 1.25483741 -72 0 C-70.91589844 -0.42925781 -69.83179688 -0.85851562 -68.71484375 -1.30078125 C-47.76140361 -9.30891677 -20.55335813 -10.38226139 0 0 Z M-61.9375 15.125 C-64.69734055 16.4974071 -65.8427271 17 -69 17 C-69 17.66 -69 18.32 -69 19 C-69.721875 19.226875 -70.44375 19.45375 -71.1875 19.6875 C-74.53200556 21.24826926 -76.44073615 23.3733871 -79 26 C-79.99 26.33 -80.98 26.66 -82 27 C-85.07529255 29.69088098 -86.9920948 32.46608685 -89 36 C-89.82844467 37.33637632 -90.66217528 38.66948433 -91.5 40 C-92.33718897 41.3309158 -93.17030777 42.66439788 -94 44 C-94.495 44.77085938 -94.99 45.54171875 -95.5 46.3359375 C-104.03149557 61.4882291 -105.79819785 80.96528977 -105 98 C-104.93619141 99.55267578 -104.93619141 99.55267578 -104.87109375 101.13671875 C-103.70556936 120.10748801 -96.68643423 139.62204121 -84 154 C-83.34 154 -82.68 154 -82 154 C-81.67 154.99 -81.34 155.98 -81 157 C-78.41927097 159.32265612 -77.54823932 160 -74 160 C-74 160.66 -74 161.32 -74 162 C-72.989375 162.598125 -71.97875 163.19625 -70.9375 163.8125 C-70.36902344 164.14894531 -69.80054688 164.48539063 -69.21484375 164.83203125 C-53.65786743 173.0357983 -33.12063128 174.69340142 -16.1484375 170.09765625 C-1.08593135 164.84633587 11.960162 156.05243891 20 142 C20 141.01 20 140.02 20 139 C20.66 139 21.32 139 22 139 C25.13599895 132.32957601 27.53984682 125.6566193 29.25 118.5 C29.41274414 117.83750244 29.57548828 117.17500488 29.74316406 116.49243164 C35.1243667 92.81685382 32.57020665 65.8515587 22 44 C21.60941406 43.19046875 21.21882813 42.3809375 20.81640625 41.546875 C17.99721401 36.11184209 14.51462053 31.17346532 10 27 C9.34 27 8.68 27 8 27 C8 26.34 8 25.68 8 25 C5.17131381 22.75501096 2.06120158 20.91140837 -1 19 C-1.60714844 18.61199219 -2.21429687 18.22398438 -2.83984375 17.82421875 C-13.18362655 11.52059582 -24.06052045 10.8206255 -35.875 10.8125 C-36.80441406 10.80025391 -37.73382812 10.78800781 -38.69140625 10.77539062 C-46.72915051 10.75857526 -54.65645876 11.46414127 -61.9375 15.125 Z " fill="#F9FBFA" transform="translate(1138,81)"/>
<path d="M0 0 C0 0.66 0 1.32 0 2 C1.98 2.33 3.96 2.66 6 3 C6 3.66 6 4.32 6 5 C6.886875 5.226875 7.77375 5.45375 8.6875 5.6875 C12.49627112 7.19663573 14.23265515 9.01978247 17 12 C18.3921875 13.0828125 18.3921875 13.0828125 19.8125 14.1875 C20.534375 14.785625 21.25625 15.38375 22 16 C22 16.66 22 17.32 22 18 C22.66 18 23.32 18 24 18 C29.51284065 24.40096036 34.2649733 31.42510374 38 39 C38.41894531 39.82757813 38.83789062 40.65515625 39.26953125 41.5078125 C52.50169746 68.93157692 52.33566706 104.50609056 42.53515625 132.99609375 C36.45229325 149.44150039 25.72485407 162.44539391 12 173 C11.29101562 173.55945313 10.58203125 174.11890625 9.8515625 174.6953125 C2.96778726 179.7328645 -4.97713126 182.35891878 -13 185 C-13.99257813 185.34417969 -14.98515625 185.68835938 -16.0078125 186.04296875 C-36.4190541 191.96612197 -61.30571346 189.00376077 -80 179 C-81.05960938 178.48373047 -81.05960938 178.48373047 -82.140625 177.95703125 C-88.73575986 174.57875413 -94.63467091 170.10458412 -100 165 C-100 164.34 -100 163.68 -100 163 C-101.32 162.34 -102.64 161.68 -104 161 C-104 160.34 -104 159.68 -104 159 C-104.66 159 -105.32 159 -106 159 C-124.41463955 139.64244216 -128.9949839 109.29744495 -128.41796875 83.734375 C-127.47456031 63.15200034 -121.62975453 40.00178363 -108 24 C-107.34 24 -106.68 24 -106 24 C-105.814375 23.319375 -105.62875 22.63875 -105.4375 21.9375 C-103.44226615 17.860283 -100.56759063 14.79988125 -97 12 C-94.7734375 11.296875 -94.7734375 11.296875 -93 11 C-93 10.34 -93 9.68 -93 9 C-65.95515392 -11.24942944 -30.55436419 -12.42806132 0 0 Z M-89.375 30.1875 C-94.05142793 35.83078434 -97.02606187 42.36174526 -100 49 C-100.4021875 49.89074219 -100.804375 50.78148437 -101.21875 51.69921875 C-111.12636326 75.00462722 -111.20820896 105.49483503 -102 129 C-96.96368543 140.39582121 -91.69319151 148.9755997 -82 157 C-81.35804688 157.54140625 -80.71609375 158.0828125 -80.0546875 158.640625 C-75.074444 162.63288497 -69.99775418 164.90078604 -64 167 C-63.2575 167.28875 -62.515 167.5775 -61.75 167.875 C-55.87052072 170.05880659 -50.24569502 170.73844171 -44 171 C-42.81921875 171.05285156 -41.6384375 171.10570312 -40.421875 171.16015625 C-23.46353532 171.56143384 -8.15237299 167.15074747 4.5 155.5625 C18.94249126 141.69724288 27.19895816 123.42853947 28.17700195 103.36987305 C28.55203424 79.75778065 27.45508437 60.55626947 17 39 C16.34 39 15.68 39 15 39 C14.95875 38.319375 14.9175 37.63875 14.875 36.9375 C12.94648263 30.4631917 7.17950089 26.01675579 2 22 C0.5459375 20.7934375 0.5459375 20.7934375 -0.9375 19.5625 C-4.50722269 17.05253873 -8.41675527 15.39599701 -12.4375 13.75 C-13.36840454 13.3624353 -13.36840454 13.3624353 -14.31811523 12.96704102 C-22.31297329 9.82706339 -30.39471976 9.81833238 -38.875 9.8125 C-39.80441406 9.80025391 -40.73382812 9.78800781 -41.69140625 9.77539062 C-59.93731883 9.73721926 -76.67407078 17.02070658 -89.375 30.1875 Z " fill="#F9FBFA" transform="translate(753,82)"/>
<path d="M0 0 C-0.56405267 2.1301989 -1.15191658 4.2541042 -1.75 6.375 C-2.07484375 7.55835937 -2.3996875 8.74171875 -2.734375 9.9609375 C-4 13 -4 13 -5.82421875 14.578125 C-8.99783717 15.19347651 -10.32512722 14.037117 -13.0625 12.375 C-31.35262786 2.77873556 -56.52995881 1.62397708 -76.09765625 7.64550781 C-78.14605363 8.32476411 -80.16603773 9.05716337 -82.1875 9.8125 C-82.85974609 10.04775391 -83.53199219 10.28300781 -84.22460938 10.52539062 C-89.00783489 12.29988811 -92.16572572 14.65424067 -96 18 C-96.66 18 -97.32 18 -98 18 C-98.33 18.99 -98.66 19.98 -99 21 C-99.66 21 -100.32 21 -101 21 C-101 21.66 -101 22.32 -101 23 C-101.680625 23.639375 -102.36125 24.27875 -103.0625 24.9375 C-112.07015011 33.79247808 -115.49962308 45.23694279 -119 57 C-119.36480469 58.14984375 -119.72960937 59.2996875 -120.10546875 60.484375 C-122.23335687 68.84725408 -122.18253593 77.2871538 -122.1875 85.875 C-122.20586914 87.53595703 -122.20586914 87.53595703 -122.22460938 89.23046875 C-122.24255919 99.41399991 -120.58869972 108.82754281 -117.6875 118.5625 C-117.4709375 119.28993408 -117.254375 120.01736816 -117.03125 120.7668457 C-114.39596271 129.32296091 -110.92171726 136.27805068 -105 143 C-104.70480469 143.64710938 -104.40960937 144.29421875 -104.10546875 144.9609375 C-102.7619929 147.43900956 -101.26965043 148.597828 -99 150.25 C-98.29875 150.77078125 -97.5975 151.2915625 -96.875 151.828125 C-95.08584879 153.17666631 -95.08584879 153.17666631 -93 153 C-92.67 153.66 -92.34 154.32 -92 155 C-72.11513653 167.26574912 -46.15499724 165.20849326 -24 162 C-22.66331241 161.68038276 -21.32892895 161.35048071 -20 161 C-19.98969254 160.12747589 -19.97938507 159.25495178 -19.96876526 158.35598755 C-19.87090564 150.14493399 -19.76840779 141.93395438 -19.66066074 133.72302437 C-19.60542777 129.50141155 -19.55200717 125.27979181 -19.50268555 121.05810547 C-19.45504751 116.98617286 -19.40270491 112.91432574 -19.34705925 108.84249496 C-19.32663315 107.28674312 -19.30792049 105.73096783 -19.29092598 104.17517471 C-19.26688756 102.00097403 -19.2368324 99.82693544 -19.20532227 97.65283203 C-19.18977798 96.41373077 -19.1742337 95.17462952 -19.15821838 93.89797974 C-19 91 -19 91 -18 89 C-15.18743719 88.97315688 -12.37512759 88.95323812 -9.5625 88.9375 C-8.76005859 88.92912109 -7.95761719 88.92074219 -7.13085938 88.91210938 C-5.08704779 88.9034857 -3.04316098 88.9477185 -1 89 C0.75439163 90.75439163 0.11982963 93.05497456 0.12442017 95.39170837 C0.12082489 96.1642244 0.11722961 96.93674042 0.11352539 97.73266602 C0.11367142 98.5423584 0.11381744 99.35205078 0.1139679 100.1862793 C0.11326854 102.87551508 0.1054751 105.56468249 0.09765625 108.25390625 C0.09579215 110.11335716 0.09436821 111.97280856 0.09336853 113.83226013 C0.08954271 118.73629096 0.07971188 123.64029236 0.06866455 128.54431152 C0.05845181 133.54451092 0.05387121 138.54471506 0.04882812 143.54492188 C0.03808967 153.36329421 0.02101248 163.18164466 0 173 C-1.39840276 173.6514606 -2.80021432 174.29560634 -4.20336914 174.93676758 C-5.37374474 175.4760363 -5.37374474 175.4760363 -6.56776428 176.02619934 C-10.42499826 177.57053033 -14.33981211 178.13136084 -18.4375 178.6875 C-23.87955005 179.28665469 -23.87955005 179.28665469 -29 181 C-30.64356807 181.09585131 -32.29114642 181.12983511 -33.9375 181.125 C-34.81277344 181.12757813 -35.68804688 181.13015625 -36.58984375 181.1328125 C-39 181 -39 181 -42 180 C-42 180.66 -42 181.32 -42 182 C-67.93358117 182.62324973 -67.93358117 182.62324973 -80 179 C-80.83273437 178.76023437 -81.66546875 178.52046875 -82.5234375 178.2734375 C-94.93307203 174.41925067 -106.17355576 168.63910918 -115 159 C-116.36125 157.63875 -116.36125 157.63875 -117.75 156.25 C-118.86375 155.13625 -118.86375 155.13625 -120 154 C-120.598125 153.443125 -121.19625 152.88625 -121.8125 152.3125 C-123 151 -123 151 -123 149 C-123.66 149 -124.32 149 -125 149 C-128 144.61538462 -128 144.61538462 -128 142 C-128.66 142 -129.32 142 -130 142 C-130.77183035 140.31295579 -131.54240925 138.62533901 -132.3125 136.9375 C-132.95638672 135.52791016 -132.95638672 135.52791016 -133.61328125 134.08984375 C-134.07089844 133.07019531 -134.52851562 132.05054688 -135 131 C-135.50660156 129.8965625 -136.01320313 128.793125 -136.53515625 127.65625 C-138.13628073 123.65984329 -139.18231363 119.75179821 -140.125 115.5625 C-140.29386719 114.85029297 -140.46273437 114.13808594 -140.63671875 113.40429688 C-142.80853891 103.99022603 -143.1823635 94.95371762 -143.1875 85.3125 C-143.19974609 84.12205078 -143.21199219 82.93160156 -143.22460938 81.70507812 C-143.26149964 59.09134337 -136.60699599 36.29906357 -123 18 C-122.34 18 -121.68 18 -121 18 C-120.6596875 17.195625 -120.6596875 17.195625 -120.3125 16.375 C-115.87083016 8.33769268 -108.89968343 3.30891824 -101 -1 C-100.23171875 -1.47308594 -99.4634375 -1.94617188 -98.671875 -2.43359375 C-69.38644214 -19.60239284 -28.27011673 -18.95530868 0 0 Z " fill="#F9FBFA" transform="translate(978,88)"/>
<path d="M0 0 C0.69351562 0.00386719 1.38703125 0.00773437 2.1015625 0.01171875 C2.78734375 0.00785156 3.473125 0.00398438 4.1796875 0 C7.29878888 0.00606829 9.74631885 0.1433042 12.7265625 1.13671875 C13.0565625 56.90671875 13.3865625 112.67671875 13.7265625 170.13671875 C41.61001853 170.38647997 41.61001853 170.38647997 69.49365234 170.61474609 C74.88012695 170.66918945 74.88012695 170.66918945 77.39981079 170.69717407 C79.16385681 170.71488772 80.9279448 170.72868049 82.69204712 170.7394104 C85.36047124 170.75639552 88.02849868 170.78572532 90.69677734 170.81787109 C91.88044923 170.82112931 91.88044923 170.82112931 93.08803368 170.82445335 C98.49850983 170.90866608 98.49850983 170.90866608 100.7265625 173.13671875 C100.87154235 175.71736004 100.91333795 178.18615759 100.8515625 180.76171875 C100.84253906 181.468125 100.83351563 182.17453125 100.82421875 182.90234375 C100.80063853 184.64727973 100.76476711 186.3920417 100.7265625 188.13671875 C86.92315363 188.16004933 73.1197478 188.17763229 59.31632328 188.18853092 C52.90757122 188.19376041 46.49883235 188.20085925 40.09008789 188.2121582 C33.91096809 188.22298474 27.73186102 188.22899509 21.55273247 188.23159599 C19.1895064 188.23345067 16.82628106 188.23707207 14.46306038 188.24244881 C11.16554354 188.24965613 7.86808003 188.25070982 4.57055664 188.25024414 C3.08918213 188.25563705 3.08918213 188.25563705 1.57788086 188.26113892 C0.68460587 188.25976425 -0.20866913 188.25838959 -1.12901306 188.25697327 C-2.30015105 188.25835596 -2.30015105 188.25835596 -3.49494839 188.25976658 C-5.2734375 188.13671875 -5.2734375 188.13671875 -6.2734375 187.13671875 C-6.37331659 184.73573291 -6.4078604 182.36345606 -6.40042114 179.96191406 C-6.40198113 179.20222446 -6.40354112 178.44253487 -6.40514839 177.65982437 C-6.4091613 175.09481154 -6.40596763 172.5298571 -6.40283203 169.96484375 C-6.40418594 168.1338294 -6.40596582 166.30281532 -6.40814209 164.47180176 C-6.41271762 159.48434283 -6.41092637 154.49690449 -6.407763 149.50944519 C-6.40524002 144.30219465 -6.40757677 139.09494592 -6.40914917 133.88769531 C-6.41097105 125.14127281 -6.40856408 116.39485873 -6.40380859 107.6484375 C-6.39836594 97.52089385 -6.40012858 87.39337034 -6.405635 77.26582718 C-6.41016562 68.58730522 -6.41081693 59.90878933 -6.40819633 51.23026657 C-6.40663327 46.03961609 -6.40644057 40.84897508 -6.40973282 35.6583252 C-6.41261079 30.77960767 -6.41063721 25.90091623 -6.40483856 21.02220154 C-6.40351056 19.22623233 -6.40390575 17.43026096 -6.40610123 15.6342926 C-6.40881118 13.1933394 -6.40543353 10.75247114 -6.40042114 8.31152344 C-6.40265186 7.59140202 -6.40488259 6.87128059 -6.40718091 6.12933731 C-6.38322416 0.16450494 -5.96328765 0.01164705 0 0 Z " fill="#F9FBFB" transform="translate(503.2734375,77.86328125)"/>
<path d="M0 0 C0.495 0.99 0.495 0.99 1 2 C1.99 1.67 2.98 1.34 4 1 C5.40162482 0.92477952 6.80666128 0.90553465 8.21020508 0.92211914 C9.50640022 0.93135658 9.50640022 0.93135658 10.82878113 0.94078064 C12.25351494 0.95655907 12.25351494 0.95655907 13.70703125 0.97265625 C23.29167359 1.02641768 32.86626514 0.9305774 42.44921875 0.74609375 C43.78703659 0.72115736 45.12485602 0.6963062 46.462677 0.67153931 C51.94175823 0.56926161 57.42076347 0.46364668 62.8996582 0.35180664 C65.65097936 0.29583652 68.40232761 0.24269187 71.15376282 0.19264221 C73.71470953 0.14590484 76.27558342 0.09493274 78.83634949 0.03916931 C80.55643974 0.00902489 80.55643974 0.00902489 82.3112793 -0.02172852 C83.31668259 -0.04171402 84.32208588 -0.06169952 85.35795593 -0.08229065 C88 0 88 0 89.90756226 0.49822998 C93.00837793 1.24181069 95.9832661 1.085296 99.16772461 1.05004883 C99.88204147 1.04376968 100.59635834 1.03749054 101.33232117 1.03102112 C102.87976428 1.01719688 104.4271897 1.00126725 105.97459221 0.98346901 C108.42524348 0.95678188 110.87580386 0.93894312 113.32655334 0.92399597 C120.29330843 0.88128993 127.25988296 0.83354029 134.22631836 0.75317383 C138.49084848 0.70462085 142.75512884 0.67564812 147.01989937 0.65942955 C148.64303206 0.64953897 150.26613751 0.63233925 151.88911247 0.60764503 C154.1606776 0.57384724 156.43109519 0.56501054 158.70288086 0.56176758 C160.64003212 0.5439196 160.64003212 0.5439196 162.61631775 0.52571106 C166.53835446 1.07546086 168.18607433 2.28426164 171 5 C170.125 9.875 170.125 9.875 169 11 C163.29600101 11.91034805 157.76662652 12.127462 152 12.0625 C151.22527344 12.05798828 150.45054687 12.05347656 149.65234375 12.04882812 C147.76819476 12.03719758 145.88408635 12.01926906 144 12 C143.74605469 12.56589844 143.49210938 13.13179687 143.23046875 13.71484375 C142.71419922 14.81505859 142.71419922 14.81505859 142.1875 15.9375 C141.85105469 16.66839844 141.51460937 17.39929688 141.16796875 18.15234375 C140 20 140 20 137 21 C137 21.66 137 22.32 137 23 C135.66666667 24.33333333 134.33333333 25.66666667 133 27 C131.97695052 28.65261839 130.97383946 30.31791365 130 32 C128 34 126 36 124 38 C121.60430421 37.03173962 120.26188141 36.42010143 118.875 34.1953125 C118.441875 33.17050781 118.441875 33.17050781 118 32.125 C116.44630285 28.73511531 114.80425119 26.51415624 112 24 C111.67 23.34 111.34 22.68 111 22 C110.01 21.67 109.02 21.34 108 21 C108 20.34 108 19.68 108 19 C107.12484678 18.58514406 107.12484678 18.58514406 106.2320137 18.1619072 C104 17 104 17 102.22437668 15.73033524 C94.83251961 10.68873772 86.95785467 11.33822805 78.39550781 11.44824219 C76.72071584 11.45129381 75.04591857 11.45211847 73.37112427 11.45089722 C68.84171297 11.45372355 64.31298745 11.48717929 59.78376102 11.52596188 C55.02798672 11.56109818 50.27217945 11.56682953 45.51629639 11.57550049 C36.50440002 11.59617792 27.49281236 11.64147813 18.48106647 11.69644666 C5.28501506 11.77594661 -7.91116289 11.82084581 -21.10737991 11.86287308 C-22.56488887 11.86753936 -22.56488887 11.86753936 -24.05184245 11.87229991 C-25.9909662 11.87850761 -27.93009015 11.8846538 -29.8692143 11.89073682 C-35.51646798 11.9093108 -41.16361417 11.93576069 -46.81079817 11.96933699 C-50.33825089 11.98968683 -53.8657159 12.00599804 -57.39319229 12.02164078 C-59.01643297 12.02983225 -60.63966576 12.03984396 -62.26288223 12.05191422 C-69.63941219 12.10621958 -77.01231556 12.09634884 -84.38262939 11.74786377 C-85.90851622 11.67871702 -85.90851622 11.67871702 -87.46522903 11.60817337 C-90 11 -90 11 -91.89014816 9.12122726 C-93 7 -93 7 -92.375 4.3125 C-91 2 -91 2 -88 1 C-84.97981236 0.93793876 -81.98036408 0.93397851 -78.9609375 0.96875 C-69.1093922 1.02490134 -59.26408418 0.93495161 -49.4140625 0.78125 C-48.69298058 0.77017212 -47.97189865 0.75909424 -47.22896576 0.74768066 C-42.78404092 0.67921045 -38.33915906 0.60825016 -33.89428711 0.53643799 C-30.05845086 0.47484589 -26.2225835 0.41525449 -22.38671875 0.35546875 C-14.92444829 0.23888 -7.46221385 0.12016354 0 0 Z M-77 10 C-77 10.33 -77 10.66 -77 11 C-30.47 11 16.06 11 64 11 C64 10.67 64 10.34 64 10 C17.47 10 -29.06 10 -77 10 Z M66 10 C66 10.33 66 10.66 66 11 C69.3 11 72.6 11 76 11 C76 10.67 76 10.34 76 10 C72.7 10 69.4 10 66 10 Z M77 10 C77 10.33 77 10.66 77 11 C81.62 11 86.24 11 91 11 C91 10.67 91 10.34 91 10 C86.38 10 81.76 10 77 10 Z M149 10 C149 10.33 149 10.66 149 11 C152.96 11 156.92 11 161 11 C161 10.67 161 10.34 161 10 C157.04 10 153.08 10 149 10 Z " fill="#C5D69F" transform="translate(186,171)"/>
<path d="M0 0 C17.2611967 6.22652428 34.55018016 2.86734121 52.00830078 -0.92675781 C62.73448438 -3.19211489 73.7501759 -5.04066645 84.22265625 -0.92578125 C91.35147836 1.77656813 98.93301098 3.2099049 106.5 3.9375 C106.5 3.2775 106.5 2.6175 106.5 1.9375 C107.386875 2.16308594 108.27375 2.38867188 109.1875 2.62109375 C115.10701927 3.46186715 120.79408333 1.41281984 126.5 0 C135.76782566 -2.13420244 144.66111151 -3.66934999 154.1875 -3.6875 C155.55551758 -3.7028479 155.55551758 -3.7028479 156.95117188 -3.71850586 C164.32964173 -3.56536003 170.64801638 -1.7107705 176.125 3.375 C177.5 5.9375 177.5 5.9375 177.25 8.75 C176.87875 9.8328125 176.87875 9.8328125 176.5 10.9375 C172.70316924 12.20311025 171.5717996 11.38980947 167.875 10 C153.3247695 5.39082102 139.15157615 8.32098954 124.59570312 11.48388672 C122.9275955 11.84494729 121.25366958 12.17910148 119.578125 12.50390625 C117.31972065 12.93326279 117.31972065 12.93326279 114.5 13.9375 C103.17484138 14.98245157 92.06020183 14.65678592 81.30810547 10.80419922 C70.69299494 7.00386325 61.51239205 8.24876095 50.5625 10.3125 C49.23654027 10.55066333 47.9103687 10.78765036 46.58398438 11.0234375 C39.96446489 12.16846269 39.96446489 12.16846269 33.5 13.9375 C18.76457619 15.03861472 5.11982991 14.89739688 -8.5 8.9375 C-19.97877819 5.210327 -33.19068689 8.57673523 -44.54174805 11.07080078 C-50.86031199 12.45820634 -57.04517807 13.46595978 -63.5 13.9375 C-63.5 14.5975 -63.5 15.2575 -63.5 15.9375 C-64.49 15.9375 -65.48 15.9375 -66.5 15.9375 C-66.5 15.2775 -66.5 14.6175 -66.5 13.9375 C-67.7375 14.370625 -68.975 14.80375 -70.25 15.25 C-76.76636646 16.71412031 -81.85879276 14.07788135 -87.5 10.9375 C-89.82638205 9.35265223 -90.84989366 8.29479476 -92.5 5.9375 C-92.8125 3.125 -92.8125 3.125 -92.5 0.9375 C-90.24333545 -0.47163895 -89.08088409 -1.17127979 -86.4140625 -0.671875 C-85.65867187 -0.38828125 -84.90328125 -0.1046875 -84.125 0.1875 C-77.71386881 2.3469379 -71.19366755 3.1176704 -64.5 3.9375 C-64.5 3.2775 -64.5 2.6175 -64.5 1.9375 C-63.64784912 2.12683105 -62.79569824 2.31616211 -61.91772461 2.51123047 C-58.17092227 2.97854363 -55.49467856 2.56595523 -51.81640625 1.7578125 C-50.55892578 1.48839844 -49.30144531 1.21898437 -48.00585938 0.94140625 C-46.69129911 0.64891863 -45.37684664 0.35594609 -44.0625 0.0625 C-41.4813012 -0.50130916 -38.89886995 -1.05917435 -36.31640625 -1.6171875 C-35.17631104 -1.86968262 -34.03621582 -2.12217773 -32.86157227 -2.38232422 C-21.01876695 -4.77858071 -11.19128614 -4.25212096 0 0 Z " fill="#CDDDA5" transform="translate(182.5,156.0625)"/>
<path d="M0 0 C0.93110596 -0.0033284 1.86221191 -0.0066568 2.8215332 -0.01008606 C4.80549628 -0.01516175 6.78946794 -0.01749419 8.7734375 -0.01733398 C11.74494594 -0.01948241 14.71605926 -0.0375229 17.6875 -0.05664062 C29.53969669 -0.09152778 41.07255976 0.54034512 52.8125 2.16796875 C54.02873047 2.33224365 55.24496094 2.49651855 56.49804688 2.66577148 C61.16878236 3.37346911 65.71904287 4.45145419 70.3125 5.54296875 C71.22386719 5.75179687 72.13523437 5.960625 73.07421875 6.17578125 C78.28123206 7.4080326 82.94831438 8.94803068 87.8125 11.16796875 C89.11441187 11.59734709 90.42495011 12.0039249 91.75 12.35546875 C92.760625 12.62359375 93.77125 12.89171875 94.8125 13.16796875 C94.8125 13.82796875 94.8125 14.48796875 94.8125 15.16796875 C96.1428125 15.29171875 96.1428125 15.29171875 97.5 15.41796875 C101.40562803 16.30226189 102.78877655 17.55657122 105.8125 20.16796875 C108.29655997 21.8994079 110.80099551 23.5977212 113.3125 25.2890625 C125.74840231 34.63542033 135.25021241 49.51088813 138.34593201 64.80299377 C138.8682327 68.56992331 138.92276984 72.25077849 138.875 76.04296875 C138.87048828 76.73132813 138.86597656 77.4196875 138.86132812 78.12890625 C138.84966336 79.8086321 138.83173271 81.4883125 138.8125 83.16796875 C106.87063217 83.21355643 74.92877356 83.2489687 42.98688082 83.27009941 C39.21911841 83.27260094 35.45135606 83.27518957 31.68359375 83.27783203 C30.55841422 83.27861896 30.55841422 83.27861896 29.41050379 83.27942179 C17.25154191 83.28813347 5.09259887 83.30390762 -7.06635182 83.32227434 C-19.53491712 83.3409522 -32.00347254 83.35208099 -44.47205126 83.35614574 C-52.17093162 83.3588952 -59.86975874 83.36759097 -67.56862272 83.38380168 C-73.46392774 83.39558538 -79.35920516 83.39688546 -85.25452232 83.39418411 C-87.67897177 83.39473677 -90.10342314 83.39874701 -92.52786064 83.4063797 C-95.82466969 83.41625436 -99.12124646 83.41396514 -102.4180603 83.40847778 C-103.38886264 83.41430347 -104.35966498 83.42012915 -105.35988557 83.42613137 C-106.23819996 83.42214927 -107.11651435 83.41816717 -108.02144432 83.41406441 C-108.7831633 83.41482385 -109.54488229 83.41558329 -110.32968366 83.41636574 C-112.1875 83.16796875 -112.1875 83.16796875 -114.1875 81.16796875 C-114.44313551 77.33343606 -114.06566497 73.90016988 -113.1875 70.16796875 C-112.5275 70.16796875 -111.8675 70.16796875 -111.1875 70.16796875 C-111.373125 69.61109375 -111.55875 69.05421875 -111.75 68.48046875 C-112.58084125 64.08887931 -111.05978636 60.13281046 -109.1875 56.16796875 C-108.1975 55.67296875 -108.1975 55.67296875 -107.1875 55.16796875 C-106.53194881 52.6406364 -106.53194881 52.6406364 -106.1875 50.16796875 C-105.5275 50.16796875 -104.8675 50.16796875 -104.1875 50.16796875 C-103.89875 49.28109375 -103.61 48.39421875 -103.3125 47.48046875 C-102.94125 46.38734375 -102.57 45.29421875 -102.1875 44.16796875 C-101.878125 43.23984375 -101.56875 42.31171875 -101.25 41.35546875 C-100.899375 40.63359375 -100.54875 39.91171875 -100.1875 39.16796875 C-98.7025 38.67296875 -98.7025 38.67296875 -97.1875 38.16796875 C-96.13741347 36.19380607 -95.13762124 34.19214009 -94.1875 32.16796875 C-93.5275 31.50796875 -92.8675 30.84796875 -92.1875 30.16796875 C-91.5275 29.17796875 -90.8675 28.18796875 -90.1875 27.16796875 C-88.85673011 26.82454426 -87.52318021 26.49177001 -86.1875 26.16796875 C-84.60416667 24.75130208 -84.60416667 24.75130208 -83.1875 23.16796875 C-78.78822401 20.23511809 -75.31936287 18.52355517 -70.1875 17.16796875 C-70.1875 16.50796875 -70.1875 15.84796875 -70.1875 15.16796875 C-68.2075 14.83796875 -66.2275 14.50796875 -64.1875 14.16796875 C-64.1875 13.50796875 -64.1875 12.84796875 -64.1875 12.16796875 C-59.94453716 10.64485388 -55.74825165 9.59744978 -51.3359375 8.73046875 C-49.12439305 8.23729822 -49.12439305 8.23729822 -47.0390625 7.04296875 C-46.42804688 6.75421875 -45.81703125 6.46546875 -45.1875 6.16796875 C-44.1975 6.66296875 -44.1975 6.66296875 -43.1875 7.16796875 C-42.8575 6.50796875 -42.5275 5.84796875 -42.1875 5.16796875 C-39.2175 5.16796875 -36.2475 5.16796875 -33.1875 5.16796875 C-33.1875 4.50796875 -33.1875 3.84796875 -33.1875 3.16796875 C-32.01380859 3.07708984 -32.01380859 3.07708984 -30.81640625 2.984375 C-29.80449219 2.90058594 -28.79257813 2.81679687 -27.75 2.73046875 C-26.74066406 2.64925781 -25.73132813 2.56804687 -24.69140625 2.484375 C-22.25109221 2.43585407 -22.25109221 2.43585407 -21.1875 1.16796875 C-18.63186629 1.0958521 -16.09089547 1.17163159 -13.53515625 1.23046875 C-9.07751539 1.11179611 -4.70111093 0.00584097 0 0 Z M-25.734375 5.6484375 C-28.52086755 6.23857048 -31.2986647 6.56645217 -34.125 6.91796875 C-58.37276917 10.60660345 -82.37776854 22.25587154 -98 41.50732422 C-100.17517282 44.54916746 -101.74948419 47.84322922 -103.3125 51.23046875 C-103.65724365 51.97272705 -104.0019873 52.71498535 -104.35717773 53.47973633 C-108.20993574 62.05522996 -110.75550811 69.75992008 -109.1875 79.16796875 C-28.3375 79.16796875 52.5125 79.16796875 135.8125 79.16796875 C136.1425 76.19796875 136.4725 73.22796875 136.8125 70.16796875 C136.1525 70.16796875 135.4925 70.16796875 134.8125 70.16796875 C134.874375 69.17796875 134.93625 68.18796875 135 67.16796875 C135 62.71045522 133.50452181 59.2288211 131.8125 55.16796875 C131.28896622 53.68975572 130.76805029 52.21061242 130.25 50.73046875 C129.24571652 47.10870085 129.24571652 47.10870085 126.8125 46.16796875 C126.379375 45.06195313 126.379375 45.06195313 125.9375 43.93359375 C124.64924716 40.76663886 122.96779691 38.56454657 120.8125 35.91796875 C120.11125 35.0465625 119.41 34.17515625 118.6875 33.27734375 C116.98562222 31.09978374 116.98562222 31.09978374 114.8125 30.16796875 C114.131875 29.61109375 113.45125 29.05421875 112.75 28.48046875 C77.888283 1.03613834 16.2377161 -4.01070267 -25.734375 5.6484375 Z M-111.1875 76.16796875 C-110.1875 79.16796875 -110.1875 79.16796875 -110.1875 79.16796875 Z " fill="#CCDDA5" transform="translate(215.1875,66.83203125)"/>
<path d="M0 0 C3.70354566 -0.00203401 7.40708617 -0.00578249 11.11063004 -0.00990677 C34.6894788 -0.03269088 58.26741011 0.00526522 81.84278679 0.44987488 C83.82248877 0.48678375 85.80224781 0.52076224 87.78205299 0.55164337 C90.48103775 0.59545335 93.17941391 0.65217673 95.87805557 0.71326828 C96.6710663 0.72442799 97.46407703 0.73558769 98.28111839 0.74708557 C102.05381898 0.84845152 103.85577011 0.97998682 107.07019424 3.12293625 C108.23321071 14.52049763 103.59113902 23.99855552 96.63269424 32.68543625 C91.43032118 38.35532658 84.83401348 41.64939854 78.07019424 45.12293625 C77.41921768 45.48645187 76.76824112 45.8499675 76.09753799 46.22449875 C55.6147032 55.30167024 29.33276535 54.59242662 7.43347549 54.52137375 C5.16778343 54.5234047 2.90209201 54.5263245 0.63640213 54.53007126 C-4.06517511 54.53444403 -8.76657906 54.52822743 -13.46813583 54.51404953 C-19.42800356 54.49693109 -25.38746651 54.50684857 -31.3473196 54.52476692 C-36.01052917 54.5357175 -40.67364607 54.53210785 -45.33685875 54.52438354 C-47.53200773 54.52241406 -49.72716576 54.52472305 -51.92230415 54.5318222 C-80.09079543 54.60300731 -113.21586803 53.41146404 -134.58605576 32.66981125 C-142.48611545 24.08507972 -146.32561457 16.01902015 -146.13293076 4.3455925 C-145.92980576 2.12293625 -145.92980576 2.12293625 -144.92980576 1.12293625 C-142.81543641 0.99813395 -140.69685069 0.94479411 -138.57897568 0.91761398 C-137.90433871 0.90772005 -137.22970175 0.89782612 -136.53462124 0.88763237 C-134.24320917 0.85554938 -131.95178057 0.83092231 -129.66027451 0.80653 C-128.0071237 0.78571752 -126.35397638 0.76462745 -124.70083237 0.74328232 C-120.13663973 0.68633722 -115.57239354 0.63715714 -111.00808716 0.59030533 C-108.11612517 0.56042405 -105.22418344 0.52898293 -102.33224106 0.49726486 C-68.22210677 0.12857544 -34.11196899 0.01463879 0 0 Z M-142.92980576 5.12293625 C-143.11550884 11.41961458 -143.11550884 11.41961458 -141.17980576 16.56043625 C-140.62293076 17.69932297 -140.62293076 17.69932297 -140.05480576 18.8612175 C-139.68355576 19.60758469 -139.31230576 20.35395187 -138.92980576 21.12293625 C-138.64105576 21.81774094 -138.35230576 22.51254562 -138.05480576 23.228405 C-134.12122237 32.30725594 -125.59421163 37.88891355 -116.92980576 42.12293625 C-109.17163822 45.13342111 -101.30316542 46.81702646 -93.06701279 47.84901047 C-90.47527078 48.18119399 -87.88864503 48.54610729 -85.30089951 48.9080925 C-74.10596088 50.43395005 -63.23437196 51.59323407 -51.92980576 51.12293625 C-50.24149029 51.12293625 -48.55444192 51.18465953 -46.86681747 51.23060226 C-41.92380012 51.36319991 -36.98057681 51.48557726 -32.03722763 51.60511398 C-29.92159716 51.65768516 -27.80603076 51.712919 -25.69054794 51.77112961 C-13.2109137 52.11229235 -0.83722655 52.16919088 11.63003922 51.41311264 C16.30340888 51.14682505 20.45545739 51.13547987 25.07019424 52.12293625 C26.52740352 52.18385637 27.98692884 52.21057876 29.44519424 52.18543625 C30.64144424 52.16481125 31.83769424 52.14418625 33.07019424 52.12293625 C33.40019424 51.46293625 33.73019424 50.80293625 34.07019424 50.12293625 C43.97019424 49.62793625 43.97019424 49.62793625 54.07019424 49.12293625 C54.07019424 48.46293625 54.07019424 47.80293625 54.07019424 47.12293625 C57.04019424 47.12293625 60.01019424 47.12293625 63.07019424 47.12293625 C63.07019424 46.46293625 63.07019424 45.80293625 63.07019424 45.12293625 C64.06019424 45.45293625 65.05019424 45.78293625 66.07019424 46.12293625 C68.97012224 45.32343031 68.97012224 45.32343031 72.07019424 44.12293625 C73.10144424 43.81356125 74.13269424 43.50418625 75.19519424 43.18543625 C78.00862479 42.14569018 79.72396286 40.93937345 82.07019424 39.12293625 C82.81269424 38.85481125 83.55519424 38.58668625 84.32019424 38.31043625 C92.8664969 34.61998737 97.96931475 28.37251891 102.07019424 20.12293625 C102.76589215 17.66392856 102.96073348 15.69526426 103.07019424 13.12293625 C103.40019424 12.46293625 103.73019424 11.80293625 104.07019424 11.12293625 C103.74019424 10.13293625 103.41019424 9.14293625 103.07019424 8.12293625 C103.73019424 8.12293625 104.39019424 8.12293625 105.07019424 8.12293625 C105.07019424 7.13293625 105.07019424 6.14293625 105.07019424 5.12293625 C23.23019424 5.12293625 -58.60980576 5.12293625 -142.92980576 5.12293625 Z " fill="#CADBA3" transform="translate(246.92980575561523,222.8770637512207)"/>
<path d="M0 0 C0.93110596 -0.0033284 1.86221191 -0.0066568 2.8215332 -0.01008606 C4.80549628 -0.01516175 6.78946794 -0.01749419 8.7734375 -0.01733398 C11.74494594 -0.01948241 14.71605926 -0.0375229 17.6875 -0.05664062 C29.53969669 -0.09152778 41.07255976 0.54034512 52.8125 2.16796875 C54.02873047 2.33224365 55.24496094 2.49651855 56.49804688 2.66577148 C61.16878236 3.37346911 65.71904287 4.45145419 70.3125 5.54296875 C71.22386719 5.75179687 72.13523437 5.960625 73.07421875 6.17578125 C78.28123206 7.4080326 82.94831438 8.94803068 87.8125 11.16796875 C89.11441187 11.59734709 90.42495011 12.0039249 91.75 12.35546875 C92.760625 12.62359375 93.77125 12.89171875 94.8125 13.16796875 C94.8125 13.82796875 94.8125 14.48796875 94.8125 15.16796875 C96.1428125 15.29171875 96.1428125 15.29171875 97.5 15.41796875 C101.40562803 16.30226189 102.78877655 17.55657122 105.8125 20.16796875 C107.47175793 21.32450449 109.13921686 22.4693194 110.8125 23.60546875 C114.52850035 26.19123161 117.77996391 28.77866371 120.8125 32.16796875 C121.988125 33.43640625 121.988125 33.43640625 123.1875 34.73046875 C124.8125 37.16796875 124.8125 37.16796875 124.4140625 39.3203125 C124.21554687 39.93003906 124.01703125 40.53976563 123.8125 41.16796875 C123.34199219 40.52988281 122.87148438 39.89179687 122.38671875 39.234375 C121.76410156 38.40808594 121.14148438 37.58179688 120.5 36.73046875 C119.88511719 35.90675781 119.27023437 35.08304688 118.63671875 34.234375 C116.89952303 31.91813238 116.89952303 31.91813238 113.8125 31.16796875 C112.67748047 30.02134766 112.67748047 30.02134766 111.51953125 28.8515625 C87.06099185 4.60478535 40.4129429 3.99044166 8.83569336 4.05053711 C-8.56806423 4.07775872 -8.56806423 4.07775872 -25.734375 6.6484375 C-28.52086755 7.23857048 -31.2986647 7.56645217 -34.125 7.91796875 C-57.58400819 11.48661504 -80.43090513 22.43691343 -96.1875 40.41796875 C-98.04391487 42.97053919 -99.21973265 45.17668785 -100.1875 48.16796875 C-100.8475 47.83796875 -101.5075 47.50796875 -102.1875 47.16796875 C-101.9375 43.79296875 -101.9375 43.79296875 -101.1875 40.16796875 C-99.3125 39.10546875 -99.3125 39.10546875 -97.1875 38.16796875 C-96.1224985 36.20181214 -95.11916826 34.20069949 -94.1875 32.16796875 C-93.5275 31.50796875 -92.8675 30.84796875 -92.1875 30.16796875 C-91.5275 29.17796875 -90.8675 28.18796875 -90.1875 27.16796875 C-88.85673011 26.82454426 -87.52318021 26.49177001 -86.1875 26.16796875 C-84.60416667 24.75130208 -84.60416667 24.75130208 -83.1875 23.16796875 C-78.78822401 20.23511809 -75.31936287 18.52355517 -70.1875 17.16796875 C-70.1875 16.50796875 -70.1875 15.84796875 -70.1875 15.16796875 C-68.2075 14.83796875 -66.2275 14.50796875 -64.1875 14.16796875 C-64.1875 13.50796875 -64.1875 12.84796875 -64.1875 12.16796875 C-59.94453716 10.64485388 -55.74825165 9.59744978 -51.3359375 8.73046875 C-49.12439305 8.23729822 -49.12439305 8.23729822 -47.0390625 7.04296875 C-46.42804688 6.75421875 -45.81703125 6.46546875 -45.1875 6.16796875 C-44.5275 6.49796875 -43.8675 6.82796875 -43.1875 7.16796875 C-42.8575 6.50796875 -42.5275 5.84796875 -42.1875 5.16796875 C-39.2175 5.16796875 -36.2475 5.16796875 -33.1875 5.16796875 C-33.1875 4.50796875 -33.1875 3.84796875 -33.1875 3.16796875 C-32.01380859 3.07708984 -32.01380859 3.07708984 -30.81640625 2.984375 C-29.80449219 2.90058594 -28.79257813 2.81679687 -27.75 2.73046875 C-26.74066406 2.64925781 -25.73132813 2.56804687 -24.69140625 2.484375 C-22.25109221 2.43585407 -22.25109221 2.43585407 -21.1875 1.16796875 C-18.63186629 1.0958521 -16.09089547 1.17163159 -13.53515625 1.23046875 C-9.07751539 1.11179611 -4.70111093 0.00584097 0 0 Z " fill="#C6D7A0" transform="translate(215.1875,66.83203125)"/>
<path d="M0 0 C0.78375 0.04125 1.5675 0.0825 2.375 0.125 C1.13699849 3.97656027 -0.99227172 4.92044544 -4.42578125 6.734375 C-12.40873317 11.7822096 -21.64111722 19.90208958 -24.625 29.125 C-25.285 28.795 -25.945 28.465 -26.625 28.125 C-26.375 24.75 -26.375 24.75 -25.625 21.125 C-23.75 20.0625 -23.75 20.0625 -21.625 19.125 C-20.5599985 17.15884339 -19.55666826 15.15773074 -18.625 13.125 C-17.965 12.465 -17.305 11.805 -16.625 11.125 C-15.965 10.135 -15.305 9.145 -14.625 8.125 C-13.29423011 7.78157551 -11.96068021 7.44880126 -10.625 7.125 C-9.04166667 5.70833333 -9.04166667 5.70833333 -7.625 4.125 C-6.635 3.465 -5.645 2.805 -4.625 2.125 C-2.625 0.125 -2.625 0.125 0 0 Z " fill="#C3D39D" transform="translate(139.625,85.875)"/>
<path d="M0 0 C1.65 0 3.3 0 5 0 C5.495 1.485 5.495 1.485 6 3 C5.46745605 3.15033691 4.93491211 3.30067383 4.38623047 3.45556641 C-5.877976 6.377784 -15.77366658 9.45610937 -25.4453125 13.99609375 C-26.70988281 14.49302734 -26.70988281 14.49302734 -28 15 C-28.66 14.67 -29.32 14.34 -30 14 C-28.875 12.0625 -28.875 12.0625 -27 10 C-23.8125 9.25 -23.8125 9.25 -21 9 C-21 8.34 -21 7.68 -21 7 C-16.75703716 5.47688513 -12.56075165 4.42948103 -8.1484375 3.5625 C-5.93689305 3.06932947 -5.93689305 3.06932947 -3.8515625 1.875 C-3.24054688 1.58625 -2.62953125 1.2975 -2 1 C-1.34 1.33 -0.68 1.66 0 2 C0 1.34 0 0.68 0 0 Z " fill="#C8D9A1" transform="translate(172,72)"/>
<path d="M0 0 C0.33 0 0.66 0 1 0 C1 27.39 1 54.78 1 83 C0.67 83 0.34 83 0 83 C0 55.61 0 28.22 0 0 Z " fill="#000100" transform="translate(979,178)"/>
<path d="M0 0 C0.33 0.66 0.66 1.32 1 2 C0.109375 4.14453125 0.109375 4.14453125 -1.25 6.8125 C-3.8596961 12.25537447 -5.1536566 17.52342931 -6.2265625 23.4453125 C-6.60941406 24.70988281 -6.60941406 24.70988281 -7 26 C-7.99 26.33 -8.98 26.66 -10 27 C-10.33 25.68 -10.66 24.36 -11 23 C-10.34 23 -9.68 23 -9 23 C-9.185625 22.443125 -9.37125 21.88625 -9.5625 21.3125 C-10.39334125 16.92091056 -8.87228636 12.96484171 -7 9 C-6.34 8.67 -5.68 8.34 -5 8 C-4.814375 6.824375 -4.814375 6.824375 -4.625 5.625 C-4 3 -4 3 -1.9375 1.1875 C-1.298125 0.795625 -0.65875 0.40375 0 0 Z " fill="#C8D8A3" transform="translate(113,114)"/>
<path d="M0 0 C8.37775061 6.84810513 8.37775061 6.84810513 11 11 C10.59375 13.1484375 10.59375 13.1484375 10 15 C9.29423828 14.04287109 9.29423828 14.04287109 8.57421875 13.06640625 C7.95160156 12.24011719 7.32898438 11.41382812 6.6875 10.5625 C6.07261719 9.73878906 5.45773437 8.91507813 4.82421875 8.06640625 C3.08702303 5.75016363 3.08702303 5.75016363 0 5 C-0.33 4.01 -0.66 3.02 -1 2 C-0.67 1.34 -0.34 0.68 0 0 Z " fill="#BCCB98" transform="translate(329,93)"/>
<path d="M0 0 C9.9 0 19.8 0 30 0 C30 0.33 30 0.66 30 1 C20.1 1 10.2 1 0 1 C0 0.67 0 0.34 0 0 Z " fill="#000100" transform="translate(193,278)"/>
<path d="M0 0 C5.94 0 11.88 0 18 0 C18 0.33 18 0.66 18 1 C12.06 1 6.12 1 0 1 C0 0.67 0 0.34 0 0 Z " fill="#000100" transform="translate(191,171)"/>
<path d="M0 0 C0.33 0 0.66 0 1 0 C1 3.3 1 6.6 1 10 C0.67 10 0.34 10 0 10 C0 6.7 0 3.4 0 0 Z " fill="#000100" transform="translate(802,158)"/>
<path d="M0 0 C0.33 0 0.66 0 1 0 C1 3.3 1 6.6 1 10 C0.67 10 0.34 10 0 10 C0 6.7 0 3.4 0 0 Z " fill="#000100" transform="translate(355,140)"/>
<path d="M0 0 C3.3 0 6.6 0 10 0 C10 0.33 10 0.66 10 1 C6.7 1 3.4 1 0 1 C0 0.67 0 0.34 0 0 Z " fill="#000100" transform="translate(233,71)"/>
<path d="M0 0 C2.97 0 5.94 0 9 0 C9 0.33 9 0.66 9 1 C6.03 1 3.06 1 0 1 C0 0.67 0 0.34 0 0 Z " fill="#000100" transform="translate(213,71)"/>
<path d="M0 0 C0.33 0 0.66 0 1 0 C1 2.64 1 5.28 1 8 C0.67 8 0.34 8 0 8 C0 5.36 0 2.72 0 0 Z " fill="#000100" transform="translate(802,179)"/>
<path d="M0 0 C2.64 0 5.28 0 8 0 C8 0.33 8 0.66 8 1 C5.36 1 2.72 1 0 1 C0 0.67 0 0.34 0 0 Z " fill="#000100" transform="translate(326,164)"/>
<path d="M0 0 C2.31 0 4.62 0 7 0 C7 0.33 7 0.66 7 1 C4.69 1 2.38 1 0 1 C0 0.67 0 0.34 0 0 Z " fill="#5E6451" transform="translate(269,272)"/>
<path d="M0 0 C0.33 0 0.66 0 1 0 C1 2.31 1 4.62 1 7 C0.67 7 0.34 7 0 7 C0 4.69 0 2.38 0 0 Z " fill="#5E6451" transform="translate(802,170)"/>
<path d="M0 0 C2.31 0 4.62 0 7 0 C7 0.33 7 0.66 7 1 C4.69 1 2.38 1 0 1 C0 0.67 0 0.34 0 0 Z " fill="#000100" transform="translate(197,72)"/>
<path d="M0 0 C1.98 0 3.96 0 6 0 C6 0.33 6 0.66 6 1 C4.02 1 2.04 1 0 1 C0 0.67 0 0.34 0 0 Z " fill="#000100" transform="translate(154,164)"/>
<path d="M0 0 C1.98 0 3.96 0 6 0 C6 0.33 6 0.66 6 1 C4.02 1 2.04 1 0 1 C0 0.67 0 0.34 0 0 Z " fill="#000100" transform="translate(253,72)"/>
<path d="M0 0 C1.65 0 3.3 0 5 0 C5 0.33 5 0.66 5 1 C3.35 1 1.7 1 0 1 C0 0.67 0 0.34 0 0 Z " fill="#000100" transform="translate(245,278)"/>
<path d="M0 0 C0.33 0 0.66 0 1 0 C1 1.65 1 3.3 1 5 C0.67 5 0.34 5 0 5 C0 3.35 0 1.7 0 0 Z " fill="#000100" transform="translate(105,230)"/>
<path d="M0 0 C0.33 0 0.66 0 1 0 C1 1.65 1 3.3 1 5 C0.67 5 0.34 5 0 5 C0 3.35 0 1.7 0 0 Z " fill="#000100" transform="translate(1034,164)"/>
<path d="M0 0 C1.65 0 3.3 0 5 0 C5 0.33 5 0.66 5 1 C3.35 1 1.7 1 0 1 C0 0.67 0 0.34 0 0 Z " fill="#000100" transform="translate(338,164)"/>
<path d="M0 0 C1.65 0 3.3 0 5 0 C5 0.33 5 0.66 5 1 C3.35 1 1.7 1 0 1 C0 0.67 0 0.34 0 0 Z " fill="#000100" transform="translate(248,164)"/>
<path d="M0 0 C0.33 0 0.66 0 1 0 C1 1.65 1 3.3 1 5 C0.67 5 0.34 5 0 5 C0 3.35 0 1.7 0 0 Z " fill="#000100" transform="translate(647,153)"/>
<path d="M0 0 C4 1 4 1 4 1 Z " fill="#000100" transform="translate(951,268)"/>
<path d="M0 0 C1 4 1 4 1 4 Z " fill="#000100" transform="translate(647,187)"/>
<path d="M0 0 C3 1 3 1 3 1 Z " fill="#000100" transform="translate(957,267)"/>
<path d="" fill="#000100" transform="translate(0,0)"/>
<path d="" fill="#000100" transform="translate(0,0)"/>
<path d="" fill="#000100" transform="translate(0,0)"/>
<path d="M0 0 C3 1 3 1 3 1 Z " fill="#000100" transform="translate(167,164)"/>
<path d="M0 0 C2 1 2 1 2 1 Z " fill="#000100" transform="translate(297,275)"/>
<path d="M0 0 C2 1 2 1 2 1 Z " fill="#000100" transform="translate(155,275)"/>
<path d="M0 0 C2 1 2 1 2 1 Z " fill="#000100" transform="translate(315,271)"/>
<path d="M0 0 C2 1 2 1 2 1 Z " fill="#5E6451" transform="translate(1113,269)"/>
<path d="M0 0 C2 1 2 1 2 1 Z " fill="#5E6451" transform="translate(937,269)"/>
<path d="M0 0 C2 1 2 1 2 1 Z " fill="#000100" transform="translate(900,268)"/>
<path d="M0 0 C2 1 2 1 2 1 Z " fill="#000100" transform="translate(691,268)"/>
<path d="M0 0 C2 1 2 1 2 1 Z " fill="#000100" transform="translate(896,267)"/>
<path d="" fill="#000100" transform="translate(0,0)"/>
<path d="" fill="#000100" transform="translate(0,0)"/>
<path d="M0 0 C2 1 2 1 2 1 Z " fill="#000100" transform="translate(354,168)"/>
<path d="M0 0 C2 1 2 1 2 1 Z " fill="#000100" transform="translate(223,168)"/>
<path d="" fill="#000100" transform="translate(0,0)"/>
<path d="" fill="#000100" transform="translate(0,0)"/>
<path d="M0 0 C2 1 2 1 2 1 Z " fill="#000100" transform="translate(956,97)"/>
<path d="M0 0 C2 1 2 1 2 1 Z " fill="#000100" transform="translate(1119,94)"/>
<path d="M0 0 C2 1 2 1 2 1 Z " fill="#000100" transform="translate(731,94)"/>
<path d="M0 0 C2 1 2 1 2 1 Z " fill="#000100" transform="translate(695,94)"/>
<path d="M0 0 C2 1 2 1 2 1 Z " fill="#000100" transform="translate(276,75)"/>
<path d="M0 0 C2 1 2 1 2 1 Z " fill="#000100" transform="translate(178,75)"/>
<path d="" fill="#000100" transform="translate(0,0)"/>
<path d="" fill="#5E6451" transform="translate(0,0)"/>
<path d="" fill="#5E6451" transform="translate(0,0)"/>
<path d="" fill="#000100" transform="translate(0,0)"/>
<path d="" fill="#000100" transform="translate(0,0)"/>
<path d="" fill="#000100" transform="translate(0,0)"/>
<path d="" fill="#000100" transform="translate(0,0)"/>
<path d="" fill="#000100" transform="translate(0,0)"/>
<path d="" fill="#000100" transform="translate(0,0)"/>
<path d="" fill="#000100" transform="translate(0,0)"/>
<path d="" fill="#000100" transform="translate(0,0)"/>
<path d="" fill="#000100" transform="translate(0,0)"/>
<path d="" fill="#000100" transform="translate(0,0)"/>
<path d="" fill="#000100" transform="translate(0,0)"/>
<path d="" fill="#000100" transform="translate(0,0)"/>
<path d="" fill="#000100" transform="translate(0,0)"/>
<path d="" fill="#000100" transform="translate(0,0)"/>
<path d="" fill="#5E6451" transform="translate(0,0)"/>
<path d="" fill="#5E6451" transform="translate(0,0)"/>
<path d="" fill="#5E6451" transform="translate(0,0)"/>
<path d="" fill="#5E6451" transform="translate(0,0)"/>
<path d="" fill="#5E6451" transform="translate(0,0)"/>
<path d="" fill="#5E6451" transform="translate(0,0)"/>
<path d="" fill="#CEDFA6" transform="translate(0,0)"/>
<path d="" fill="#5E6451" transform="translate(0,0)"/>
<path d="" fill="#5E6451" transform="translate(0,0)"/>
<path d="" fill="#000100" transform="translate(0,0)"/>
<path d="" fill="#5E6451" transform="translate(0,0)"/>
<path d="" fill="#000100" transform="translate(0,0)"/>
<path d="" fill="#000100" transform="translate(0,0)"/>
<path d="" fill="#000100" transform="translate(0,0)"/>
<path d="" fill="#000100" transform="translate(0,0)"/>
<path d="" fill="#000100" transform="translate(0,0)"/>
<path d="" fill="#5E6451" transform="translate(0,0)"/>
<path d="" fill="#CEDFA6" transform="translate(0,0)"/>
<path d="" fill="#CEDFA6" transform="translate(0,0)"/>
<path d="" fill="#5E6451" transform="translate(0,0)"/>
<path d="" fill="#5E6451" transform="translate(0,0)"/>
<path d="" fill="#CEDFA6" transform="translate(0,0)"/>
<path d="" fill="#CEDFA6" transform="translate(0,0)"/>
<path d="" fill="#000100" transform="translate(0,0)"/>
<path d="" fill="#000100" transform="translate(0,0)"/>
<path d="" fill="#000100" transform="translate(0,0)"/>
<path d="" fill="#5E6451" transform="translate(0,0)"/>
<path d="" fill="#CEDFA6" transform="translate(0,0)"/>
<path d="" fill="#CEDFA6" transform="translate(0,0)"/>
<path d="" fill="#5E6451" transform="translate(0,0)"/>
<path d="" fill="#000100" transform="translate(0,0)"/>
<path d="" fill="#5E6451" transform="translate(0,0)"/>
<path d="" fill="#000100" transform="translate(0,0)"/>
<path d="" fill="#000100" transform="translate(0,0)"/>
<path d="" fill="#000100" transform="translate(0,0)"/>
<path d="" fill="#000100" transform="translate(0,0)"/>
<path d="" fill="#CEDFA6" transform="translate(0,0)"/>
<path d="" fill="#CEDFA6" transform="translate(0,0)"/>
<path d="" fill="#000100" transform="translate(0,0)"/>
<path d="" fill="#000100" transform="translate(0,0)"/>
<path d="" fill="#000100" transform="translate(0,0)"/>
<path d="" fill="#000100" transform="translate(0,0)"/>
<path d="" fill="#000100" transform="translate(0,0)"/>
<path d="" fill="#000100" transform="translate(0,0)"/>
<path d="" fill="#000100" transform="translate(0,0)"/>
<path d="" fill="#CEDFA6" transform="translate(0,0)"/>
<path d="" fill="#CEDFA6" transform="translate(0,0)"/>
<path d="" fill="#000100" transform="translate(0,0)"/>
<path d="" fill="#CEDFA6" transform="translate(0,0)"/>
<path d="" fill="#5E6451" transform="translate(0,0)"/>
<path d="" fill="#000100" transform="translate(0,0)"/>
<path d="" fill="#000100" transform="translate(0,0)"/>
<path d="" fill="#CEDFA6" transform="translate(0,0)"/>
<path d="" fill="#000100" transform="translate(0,0)"/>
<path d="" fill="#000100" transform="translate(0,0)"/>
<path d="" fill="#5E6451" transform="translate(0,0)"/>
<path d="" fill="#000100" transform="translate(0,0)"/>
<path d="" fill="#CEDFA6" transform="translate(0,0)"/>
<path d="" fill="#5E6451" transform="translate(0,0)"/>
<path d="" fill="#000100" transform="translate(0,0)"/>
<path d="" fill="#000100" transform="translate(0,0)"/>
<path d="" fill="#000100" transform="translate(0,0)"/>
<path d="" fill="#000100" transform="translate(0,0)"/>
</svg>
